<svg xmlns="http://www.w3.org/2000/svg" fill="none" viewBox="0 0 900 118">
  <mask id="a" width="900" height="118" x="0" y="0" maskUnits="userSpaceOnUse" style="mask-type:alpha">
    <path fill="#D9D9D9" d="M0 0h900v70c0 26.51-21.49 48-48 48H48C21.49 118 0 96.51 0 70V0Z"/>
  </mask>
  <g mask="url(#a)">
    <path fill="#B5E9FF" d="m906.956 128.536-5.127-117.873s-93.293 12.44-187.5 6.753c-94.207-5.687-172.866-22.747-275.305-4.976C336.585 30.21 111.585 22.747-1.287 7.82l-15.481 117.766 923.724 2.95Z"/>
    <path fill="#6EBDDF" d="M907 129V28.411S718 6.358 660 8.5c-58 2.142-249 50.5-339 9.434-90-41.065-217 19.566-322.514 0L-17 126.195 907 129Z"/>
  </g>
</svg>
